<?xml version="1.0" standalone="no"?>
<!DOCTYPE svg PUBLIC "-//W3C//DTD SVG 20010904//EN"
 "http://www.w3.org/TR/2001/REC-SVG-20010904/DTD/svg10.dtd">
<svg version="1.0" xmlns="http://www.w3.org/2000/svg"
 width="353.000000pt" height="353.000000pt" viewBox="0 0 353.000000 353.000000"
 preserveAspectRatio="xMidYMid meet">

<g transform="translate(0.000000,353.000000) scale(0.100000,-0.100000)"
fill="#000000" stroke="none">
<path d="M0 1765 l0 -1765 1765 0 1765 0 0 1765 0 1765 -1765 0 -1765 0 0
-1765z m1868 1128 c157 -97 161 -325 6 -423 -119 -75 -273 -38 -349 84 -26 44
-30 58 -30 125 0 65 4 83 28 123 52 89 132 131 235 124 47 -3 75 -11 110 -33z
m9 -775 c-10 -212 -49 -309 -172 -433 -44 -44 -115 -111 -156 -150 -48 -44
-87 -90 -105 -125 -27 -50 -29 -64 -29 -160 0 -88 4 -113 23 -155 59 -128 180
-193 321 -174 113 16 195 74 246 177 25 51 54 173 55 235 l0 27 170 0 170 0 0
-67 c0 -150 -70 -333 -170 -446 -67 -74 -173 -143 -279 -181 -84 -30 -91 -31
-261 -31 -164 0 -180 2 -256 28 -189 63 -316 189 -380 377 -28 83 -26 322 4
402 30 83 85 161 161 228 36 32 94 82 128 112 73 64 127 127 153 178 24 48 50
148 50 196 0 88 -8 84 173 84 l160 0 -6 -122z"/>
</g>
</svg>
